<?xml version="1.0" encoding="utf-8"?>
<svg version="1.1" id="图层_1" xmlns="http://www.w3.org/2000/svg" x="0px" y="0px"
   viewBox="0 0 120 20" style="enable-background:new 0 0 120 20;" xml:space="preserve">
<style type="text/css">
  .st0{fill:#ffffff;}
</style>
<path class="st0" d="M107.6,19.1h-1.5v-17c0-0.6,0.3-1.1,0.7-1.4c0.5-0.2,1-0.2,1.5,0.2l10.9,7.5c0.5,0.3,0.8,0.8,0.8,1.4
  c0,0.5-0.3,1-0.8,1.4l-10.7,7.2l-0.9-1.3l10.7-7.2c0.1,0,0.1-0.1,0.1-0.1c0,0,0,0-0.1-0.1l-10.7-7.4V19.1z M97.1,1.2h-1.5v18h1.5
  V1.2z M88.2,18.2l-8.1-8c-0.1-0.1-0.1-0.2-0.1-0.2c0,0,0-0.1,0.1-0.2l7.4-7.4C88.2,1.8,88,1.3,88,1.1c-0.1-0.2-0.4-0.7-1.2-0.7H75.5
  c-1,0-1.8,0.8-1.8,1.8v16.7h1.5V2.2c0-0.2,0.1-0.3,0.3-0.3l10.4,0l-6.9,6.8c-0.3,0.3-0.5,0.8-0.5,1.3c0,0.5,0.2,0.9,0.5,1.3l8.1,8
  L88.2,18.2z M64.9,9.7l-8.3-8.6l-1.1,1.1l8.3,8.6L64.9,9.7z M68.8,18.1H56.6c-0.2,0-0.3-0.1-0.3-0.3V2.2c0-0.2,0.1-0.3,0.3-0.3h12.2
  V0.4H56.6c-1,0-1.8,0.8-1.8,1.8v15.6c0,1,0.8,1.8,1.8,1.8h12.2V18.1z M38.4,2.2c0-0.2,0.1-0.3,0.3-0.3l10.4,0l-7.6,7.5l1.1,1.1
  l8.2-8.1c0.6-0.6,0.5-1.2,0.4-1.4c-0.1-0.2-0.4-0.7-1.2-0.7H38.7c-1,0-1.8,0.8-1.8,1.8v16.7h1.5V2.2z M32.5,17.8V1.1h-1.5v16.7
  c0,0.2-0.1,0.3-0.3,0.3H19.5c-0.2,0-0.3-0.1-0.3-0.3V1.1h-1.5v16.7c0,1,0.8,1.8,1.8,1.8h11.2C31.6,19.6,32.5,18.8,32.5,17.8z
   M13.8,19c0.2-0.4,0.1-0.9-0.2-1.4L1.8,1.9h11.8V0.4H1.4c-0.6,0-1,0.2-1.2,0.7C-0.1,1.5,0,2,0.3,2.4l11.7,15.7H0.3v1.5h12.2
  C13.1,19.6,13.6,19.4,13.8,19z"/>
</svg>
